<svg xmlns="http://www.w3.org/2000/svg" width="142" height="63" viewBox="0 0 907.09332 403.16">
    <g id="g10" transform="matrix(1.3333333,0,0,-1.3333333,0,403.16)">
        <g id="g12" transform="scale(0.1)">
            <path id="path14" d="M 944.887,944.949 V 2078.82 h 188.983 c 104.36,0 188.96,-84.63 188.96,-188.96 v -566.95 -189 c 0,-104.33 -84.54,-188.898 -188.86,-188.961 z M 1700.79,2078.82 c 0,208.73 -169.2,377.94 -377.96,377.94 H 944.887 566.926 V 2267.8 944.949 566.969 h 566.944 37.78 151.18 c 208.76,0 377.98,169.25 377.98,377.98 l -0.02,377.961 v 755.91" style="fill:#ffffff;fill-opacity:1;fill-rule:nonzero;stroke:none"/>
            <path id="path16" d="m 6047.26,2456.76 c -104.4,0 -189,-84.58 -189,-188.96 V 566.969 h 189 c 104.36,0 188.96,84.621 188.96,189.019 V 2456.76 h -188.96" style="fill:#ffffff;fill-opacity:1;fill-rule:nonzero;stroke:none"/>
            <path id="path18" d="m 4240.53,1428.83 c -87.97,-88.02 -196.75,-147.74 -315.19,-174.66 26.97,-32.67 43.14,-74.57 43.14,-120.26 0,-104.33 -84.59,-188.961 -188.91,-188.961 -104.41,0 -189.04,84.631 -189.04,188.961 v 103.95 H 3212.6 V 755.988 c 0,-104.398 84.6,-189.019 188.98,-189.019 h 377.99 c 313.07,0 566.88,253.863 566.88,566.941 0,114.19 -33.77,220.48 -91.82,309.44 -4.63,-4.88 -9.33,-9.74 -14.1,-14.52" style="fill:#ffffff;fill-opacity:1;fill-rule:nonzero;stroke:none"/>
            <path id="path20" d="m 3590.53,1889.86 c 0,73.75 42.31,137.59 103.96,168.73 v 398.17 H 3212.6 v -670.85 h 377.93 v 103.95" style="fill:#ffffff;fill-opacity:1;fill-rule:nonzero;stroke:none"/>
            <path id="path22" d="m 2267.73,1710.13 v 746.63 h -189 c -104.35,0 -188.98,-84.58 -188.98,-188.96 v -481.89 h 188.98 c 73.21,0 139.79,-28.86 189,-75.78" style="fill:#ffffff;fill-opacity:1;fill-rule:nonzero;stroke:none"/>
            <path id="path24" d="m 3023.61,1785.91 v 481.89 c 0,104.38 -84.6,188.96 -188.97,188.96 h -188.97 v -746.63 c 49.2,46.92 115.79,75.78 188.97,75.78 h 188.97" style="fill:#ffffff;fill-opacity:1;fill-rule:nonzero;stroke:none"/>
            <path id="path26" d="m 4535.45,566.969 h 188.96 c 104.4,0 188.96,84.621 188.96,189.019 V 1237.86 H 4535.45 V 566.969" style="fill:#ffffff;fill-opacity:1;fill-rule:nonzero;stroke:none"/>
            <path id="path28" d="m 4913.37,1785.8 v 208.16 h -0.13 v 273.84 c 0,73.19 28.84,139.79 75.74,188.96 h -75.61 c -208.72,0 -377.92,-169.21 -377.92,-377.94 v -368.69 c 49.19,46.92 115.77,75.78 188.96,75.78 l 188.96,-0.11" style="fill:#ffffff;fill-opacity:1;fill-rule:nonzero;stroke:none"/>
            <path id="path30" d="m 5298.12,1237.92 v -0.06 h -6.79 V 755.988 c 0,-104.398 84.65,-189.019 188.96,-189.019 h 189 V 1433.74 C 5586.6,1317.03 5451.2,1240.13 5298.12,1237.92" style="fill:#ffffff;fill-opacity:1;fill-rule:nonzero;stroke:none"/>
            <path id="path32" d="m 3779.57,2456.76 v -377.94 c 104.32,0 188.91,-84.63 188.91,-188.96 0,-104.4 -84.59,-189.01 -188.91,-189.01 h -567.08 -37.68 -340.17 c -104.37,0 -188.97,-84.62 -188.97,-188.95 V 944.949 h -188.98 c -104.33,0 -188.94,84.601 -188.96,188.891 v 378.06 c 0,104.33 -84.61,188.95 -189,188.95 H 1889.75 V 944.949 c 0,-208.73 169.24,-377.98 377.98,-377.98 h 188.96 37.81 151.17 c 208.74,0 377.94,169.25 377.94,377.98 v 36.289 341.672 h 755.96 c 313.07,0 566.88,253.83 566.88,566.95 0,313.09 -253.81,566.9 -566.88,566.9" style="fill:#ffffff;fill-opacity:1;fill-rule:nonzero;stroke:none"/>
            <path id="path34" d="m 3884.71,1137.08 c 0,57.44 -46.52,103.96 -103.93,103.96 h -103.92 v -103.96 c 0,-57.38 46.56,-103.94 103.92,-103.94 57.41,0 103.93,46.56 103.93,103.94" style="fill:#ffffff;fill-opacity:1;fill-rule:nonzero;stroke:none"/>
            <path id="path36" d="M 2590.66,494 H 2486.72 V 390.051 c 0,-57.379 46.56,-103.93 103.94,-103.93 57.4,0 103.95,46.551 103.95,103.93 0,57.398 -46.55,103.949 -103.95,103.949" style="fill:#ffffff;fill-opacity:1;fill-rule:nonzero;stroke:none"/>
            <path id="path38" d="M 2311.7,494 H 2207.75 V 390.051 c 0,-57.379 46.52,-103.93 103.95,-103.93 57.39,0 103.91,46.551 103.91,103.93 0,57.39 -46.52,103.949 -103.91,103.949" style="fill:#ffffff;fill-opacity:1;fill-rule:nonzero;stroke:none"/>
            <path id="path40" d="m 5291.33,2456.76 h -104.1 c -104.35,0 -188.95,-84.58 -188.95,-188.96 v -188.96 l 104.09,-0.21 c 104.36,0 188.96,-84.61 188.96,-188.97 0,-104.32 -84.6,-189 -188.96,-189 l -377.96,0.19 c -104.36,0 -188.96,-84.62 -188.96,-188.95 v -188.99 h 566.92 188.96 c 208.76,0 377.96,169.21 377.96,377.94 v 377.99 c 0,208.71 -169.2,377.92 -377.96,377.92" style="fill:#ffffff;fill-opacity:1;fill-rule:nonzero;stroke:none"/>
        </g>
    </g>
</svg>
